<svg width="150" viewBox="0 0 70 23" fill="black" xmlns="http://www.w3.org/2000/svg">
<path d="M6.67529 15.3853L10.9409 3.07031H13.0942L7.55713 18H5.81396L0.287109 3.07031H2.43018L6.67529 15.3853ZM23.543 11.0991H17.0728V16.3901H24.5889V18H15.104V3.07031H24.4863V4.69043H17.0728V9.48926H23.543V11.0991ZM38.0625 16.0415C37.5566 16.7661 36.8491 17.3096 35.9399 17.6719C35.0376 18.0273 33.9849 18.2051 32.7817 18.2051C31.5649 18.2051 30.4849 17.9214 29.5415 17.354C28.5981 16.7798 27.8667 15.9663 27.3472 14.9136C26.8345 13.8608 26.5713 12.6406 26.5576 11.2529V9.95068C26.5576 7.70166 27.0806 5.9585 28.1265 4.72119C29.1792 3.48389 30.6558 2.86523 32.5562 2.86523C34.1147 2.86523 35.3691 3.26514 36.3193 4.06494C37.2695 4.85791 37.8506 5.98584 38.0625 7.44873H36.0938C35.7246 5.47314 34.5488 4.48535 32.5664 4.48535C31.2471 4.48535 30.2456 4.9502 29.562 5.87988C28.8853 6.80273 28.5435 8.14258 28.5366 9.89941V11.1196C28.5366 12.7944 28.9194 14.1274 29.6851 15.1187C30.4507 16.103 31.4863 16.5952 32.792 16.5952C33.5303 16.5952 34.1763 16.5132 34.73 16.3491C35.2837 16.1851 35.7417 15.9082 36.104 15.5186V12.1655H32.6484V10.5659H38.0625V16.0415ZM66.5273 18H64.5483L57.0322 6.49512V18H55.0532V3.07031H57.0322L64.5688 14.6265V3.07031H66.5273V18Z" fill="#002940"/>
<g clip-path="url(#clip0)">
<path d="M51.4213 18.1111H41.5784C41.4197 18.1111 41.2909 17.9655 41.2909 17.7853V11.7111L39.2868 11.7065C39.1706 11.7062 39.066 11.6267 39.0217 11.5052C38.9774 11.3833 39.0021 11.2435 39.0841 11.1503L46.2897 2.98393C46.3553 2.90997 46.449 2.87706 46.539 2.8927C46.6243 2.90833 46.6985 2.96665 46.7417 3.05071L48.4192 4.95195V4.34494C48.4192 4.16508 48.5477 4.01909 48.7067 4.01909H50.3958C50.5548 4.01909 50.6833 4.16508 50.6833 4.34494V7.51792L53.9157 11.1816C53.9979 11.2748 54.0227 11.4152 53.9781 11.5371C53.9335 11.6586 53.8286 11.7378 53.7124 11.7378C53.7121 11.7378 53.7121 11.7378 53.7119 11.7378L51.7086 11.7332V17.7853C51.7088 17.9655 51.5803 18.1111 51.4213 18.1111ZM41.866 17.4595H51.1338V11.4068C51.1338 11.3201 51.164 11.237 51.2184 11.1761C51.2724 11.1152 51.3452 11.0809 51.4214 11.0809C51.4216 11.0809 51.4216 11.0809 51.4219 11.0809L53.0172 11.0845L50.1928 7.88317C50.1388 7.82192 50.1086 7.73915 50.1086 7.6528V4.67079H48.9945V5.73886C48.9945 5.8705 48.9247 5.98943 48.8172 6.03994C48.7099 6.09077 48.5863 6.06275 48.5038 5.96923L46.4864 3.68285L39.9803 11.0565L41.579 11.0601C41.7377 11.0604 41.866 11.2061 41.866 11.3859C41.866 11.3859 41.866 17.4595 41.866 17.4595Z" fill="#002940"/>
</g>
<defs>
<clipPath id="clip0">
<rect x="39" y="2" width="15" height="17" fill="none"/>
</clipPath>
</defs>
</svg>
