<svg width="570" height="93" viewBox="0 0 570 93" fill="none" xmlns="http://www.w3.org/2000/svg">
<path d="M30.7266 59.5488L51.0391 0.90625H61.293L34.9258 72H26.625L0.306641 0.90625H10.5117L30.7266 59.5488ZM89.2227 72.9766C82.0612 72.9766 76.2344 70.6328 71.7422 65.9453C67.25 61.2253 65.0039 54.9264 65.0039 47.0488V45.3887C65.0039 40.1478 65.9967 35.4766 67.9824 31.375C70.0007 27.2409 72.8001 24.0182 76.3809 21.707C79.9941 19.3633 83.9004 18.1914 88.0996 18.1914C94.9681 18.1914 100.307 20.4538 104.115 24.9785C107.924 29.5033 109.828 35.9811 109.828 44.4121V48.1719H74.0371C74.1673 53.3802 75.681 57.5957 78.5781 60.8184C81.5078 64.0085 85.2188 65.6035 89.7109 65.6035C92.901 65.6035 95.6029 64.9525 97.8164 63.6504C100.03 62.3483 101.967 60.623 103.627 58.4746L109.145 62.7715C104.717 69.5749 98.0768 72.9766 89.2227 72.9766ZM88.0996 25.6133C84.4538 25.6133 81.3939 26.9479 78.9199 29.6172C76.446 32.2539 74.916 35.9648 74.3301 40.75H100.795V40.0664C100.535 35.4766 99.2975 31.9284 97.084 29.4219C94.8704 26.8828 91.8757 25.6133 88.0996 25.6133ZM118.178 45.1445C118.178 36.9089 120.082 30.3659 123.891 25.5156C127.699 20.6328 132.745 18.1914 139.027 18.1914C145.473 18.1914 150.502 20.4701 154.115 25.0273L154.555 19.168H162.807V70.7305C162.807 77.5664 160.772 82.9538 156.703 86.8926C152.667 90.8314 147.23 92.8008 140.395 92.8008C136.586 92.8008 132.859 91.987 129.213 90.3594C125.567 88.7318 122.784 86.502 120.863 83.6699L125.551 78.25C129.424 83.0352 134.161 85.4277 139.76 85.4277C144.154 85.4277 147.572 84.1908 150.014 81.7168C152.488 79.2428 153.725 75.7598 153.725 71.2676V66.7266C150.111 70.8932 145.18 72.9766 138.93 72.9766C132.745 72.9766 127.732 70.4863 123.891 65.5059C120.082 60.5254 118.178 53.7383 118.178 45.1445ZM127.26 46.1699C127.26 52.127 128.48 56.8145 130.922 60.2324C133.363 63.6178 136.781 65.3105 141.176 65.3105C146.872 65.3105 151.055 62.7227 153.725 57.5469V33.4258C150.958 28.3802 146.807 25.8574 141.273 25.8574C136.879 25.8574 133.445 27.5664 130.971 30.9844C128.497 34.4023 127.26 39.4642 127.26 46.1699ZM209.096 72C208.575 70.9583 208.152 69.1029 207.826 66.4336C203.627 70.7956 198.614 72.9766 192.787 72.9766C187.579 72.9766 183.298 71.5117 179.945 68.582C176.625 65.6198 174.965 61.8763 174.965 57.3516C174.965 51.8503 177.048 47.5859 181.215 44.5586C185.414 41.4987 191.306 39.9688 198.891 39.9688H207.68V35.8184C207.68 32.6608 206.736 30.1543 204.848 28.2988C202.96 26.4108 200.176 25.4668 196.498 25.4668C193.275 25.4668 190.574 26.2806 188.393 27.9082C186.212 29.5358 185.121 31.5052 185.121 33.8164H176.039C176.039 31.1797 176.967 28.6406 178.822 26.1992C180.71 23.7253 183.249 21.7721 186.439 20.3398C189.662 18.9076 193.194 18.1914 197.035 18.1914C203.122 18.1914 207.891 19.7214 211.342 22.7812C214.792 25.8086 216.583 29.9915 216.713 35.3301V59.6465C216.713 64.4967 217.331 68.3542 218.568 71.2188V72H209.096ZM194.105 65.1152C196.938 65.1152 199.623 64.3828 202.162 62.918C204.701 61.4531 206.54 59.5488 207.68 57.2051V46.3652H200.6C189.532 46.3652 183.998 49.6042 183.998 56.082C183.998 58.9141 184.942 61.1276 186.83 62.7227C188.718 64.3177 191.143 65.1152 194.105 65.1152ZM239.418 19.168L239.711 25.8086C243.747 20.7305 249.021 18.1914 255.531 18.1914C266.697 18.1914 272.328 24.4902 272.426 37.0879V72H263.393V37.0391C263.36 33.2305 262.481 30.4147 260.756 28.5918C259.063 26.7689 256.41 25.8574 252.797 25.8574C249.867 25.8574 247.296 26.6387 245.082 28.2012C242.868 29.7637 241.143 31.8145 239.906 34.3535V72H230.873V19.168H239.418ZM366.908 72H357.484V39.1387H321.645V72H312.27V0.90625H321.645V31.4727H357.484V0.90625H366.908V72ZM379.75 45.0957C379.75 39.9199 380.759 35.265 382.777 31.1309C384.828 26.9967 387.66 23.8066 391.273 21.5605C394.919 19.3145 399.07 18.1914 403.725 18.1914C410.919 18.1914 416.729 20.6816 421.156 25.6621C425.616 30.6426 427.846 37.2669 427.846 45.5352V46.1699C427.846 51.3132 426.853 55.9355 424.867 60.0371C422.914 64.1061 420.098 67.2799 416.42 69.5586C412.774 71.8372 408.575 72.9766 403.822 72.9766C396.661 72.9766 390.85 70.4863 386.391 65.5059C381.964 60.5254 379.75 53.9336 379.75 45.7305V45.0957ZM388.832 46.1699C388.832 52.0293 390.183 56.7331 392.885 60.2812C395.619 63.8294 399.265 65.6035 403.822 65.6035C408.412 65.6035 412.058 63.8132 414.76 60.2324C417.462 56.6191 418.812 51.5736 418.812 45.0957C418.812 39.3014 417.429 34.6139 414.662 31.0332C411.928 27.4199 408.282 25.6133 403.725 25.6133C399.265 25.6133 395.668 27.3874 392.934 30.9355C390.199 34.4837 388.832 39.5618 388.832 46.1699ZM447.67 19.168L447.914 25.0273C451.788 20.4701 457.012 18.1914 463.588 18.1914C470.977 18.1914 476.007 21.0234 478.676 26.6875C480.434 24.1484 482.712 22.0977 485.512 20.5352C488.344 18.9727 491.68 18.1914 495.521 18.1914C507.11 18.1914 513.002 24.3275 513.197 36.5996V72H504.164V37.1367C504.164 33.3607 503.301 30.5449 501.576 28.6895C499.851 26.8014 496.954 25.8574 492.885 25.8574C489.532 25.8574 486.749 26.8665 484.535 28.8848C482.322 30.8704 481.036 33.556 480.678 36.9414V72H471.596V37.3809C471.596 29.6986 467.836 25.8574 460.316 25.8574C454.392 25.8574 450.339 28.3802 448.158 33.4258V72H439.125V19.168H447.67ZM548.793 72.9766C541.632 72.9766 535.805 70.6328 531.312 65.9453C526.82 61.2253 524.574 54.9264 524.574 47.0488V45.3887C524.574 40.1478 525.567 35.4766 527.553 31.375C529.571 27.2409 532.37 24.0182 535.951 21.707C539.564 19.3633 543.471 18.1914 547.67 18.1914C554.538 18.1914 559.877 20.4538 563.686 24.9785C567.494 29.5033 569.398 35.9811 569.398 44.4121V48.1719H533.607C533.738 53.3802 535.251 57.5957 538.148 60.8184C541.078 64.0085 544.789 65.6035 549.281 65.6035C552.471 65.6035 555.173 64.9525 557.387 63.6504C559.6 62.3483 561.537 60.623 563.197 58.4746L568.715 62.7715C564.288 69.5749 557.647 72.9766 548.793 72.9766ZM547.67 25.6133C544.024 25.6133 540.964 26.9479 538.49 29.6172C536.016 32.2539 534.486 35.9648 533.9 40.75H560.365V40.0664C560.105 35.4766 558.868 31.9284 556.654 29.4219C554.441 26.8828 551.446 25.6133 547.67 25.6133Z" fill="white"/>
</svg>
