<svg width="353" height="79" viewBox="0 0 353 79" fill="none" xmlns="http://www.w3.org/2000/svg">
<g clip-path="url(#clip0)">
<path d="M52.7653 6.33154H29.6183V69H23.9127V6.33154H0.812134V1.46094H52.7653V6.33154ZM101.007 36.6221H69.4181V64.1758H105.739V69H63.7125V1.46094H105.507V6.33154H69.4181V31.7979H101.007V36.6221ZM165.624 47.9404C164.851 55.0531 162.3 60.4958 157.97 64.2686C153.672 68.0413 147.935 69.9277 140.761 69.9277C135.751 69.9277 131.313 68.6753 127.448 66.1704C123.613 63.6655 120.644 60.1247 118.542 55.5479C116.439 50.9401 115.372 45.6829 115.341 39.7764V31.0093C115.341 25.0099 116.392 19.6909 118.495 15.0522C120.598 10.4136 123.613 6.8418 127.541 4.33691C131.499 1.80111 136.045 0.533203 141.178 0.533203C148.415 0.533203 154.12 2.49691 158.295 6.42432C162.501 10.3208 164.944 15.7171 165.624 22.6133H159.872C158.45 11.1403 152.218 5.40381 141.178 5.40381C135.055 5.40381 130.169 7.69222 126.52 12.269C122.902 16.8459 121.093 23.1699 121.093 31.2412V39.498C121.093 47.291 122.856 53.5068 126.381 58.1455C129.937 62.7842 134.731 65.1035 140.761 65.1035C146.729 65.1035 151.229 63.681 154.259 60.8359C157.29 57.96 159.161 53.6615 159.872 47.9404H165.624ZM229.545 69H223.793V36.6221H185.199V69H179.494V1.46094H185.199V31.7979H223.793V1.46094H229.545V69Z" fill="white"/>
<line x1="185.2" y1="34.35" x2="347.2" y2="36.35" stroke="#AFCCAE" stroke-width="7.3"/>
<line x1="24" y1="75.35" x2="347" y2="78.35" stroke="#AFCCAE" stroke-width="7.3"/>
<path d="M234.777 60.7812H243.203V62H233.324V44.9375H234.777V60.7812ZM247.738 62H246.297V44.9375H247.738V62ZM261.777 54.0312H253.82V62H252.379V44.9375H262.949V46.168H253.82V52.8008H261.777V54.0312ZM275.301 53.8203H267.32V60.7812H276.496V62H265.879V44.9375H276.438V46.168H267.32V52.6016H275.301V53.8203ZM289.199 57.8047C289.199 56.8594 288.867 56.1133 288.203 55.5664C287.539 55.0117 286.324 54.4883 284.559 53.9961C282.793 53.4961 281.504 52.9531 280.691 52.3672C279.535 51.5391 278.957 50.4531 278.957 49.1094C278.957 47.8047 279.492 46.7461 280.562 45.9336C281.641 45.1133 283.016 44.7031 284.688 44.7031C285.82 44.7031 286.832 44.9219 287.723 45.3594C288.621 45.7969 289.316 46.4062 289.809 47.1875C290.301 47.9688 290.547 48.8398 290.547 49.8008H289.094C289.094 48.6367 288.695 47.7031 287.898 47C287.102 46.2891 286.031 45.9336 284.688 45.9336C283.383 45.9336 282.344 46.2266 281.57 46.8125C280.797 47.3906 280.41 48.1484 280.41 49.0859C280.41 49.9531 280.758 50.6602 281.453 51.207C282.148 51.7539 283.262 52.2383 284.793 52.6602C286.324 53.0742 287.484 53.5078 288.273 53.9609C289.062 54.4062 289.656 54.9414 290.055 55.5664C290.453 56.1914 290.652 56.9297 290.652 57.7812C290.652 59.125 290.113 60.2031 289.035 61.0156C287.965 61.8281 286.551 62.2344 284.793 62.2344C283.59 62.2344 282.484 62.0195 281.477 61.5898C280.477 61.1602 279.715 60.5586 279.191 59.7852C278.676 59.0117 278.418 58.125 278.418 57.125H279.859C279.859 58.3281 280.309 59.2773 281.207 59.9727C282.105 60.668 283.301 61.0156 284.793 61.0156C286.121 61.0156 287.188 60.7227 287.992 60.1367C288.797 59.5508 289.199 58.7734 289.199 57.8047ZM305.348 46.168H299.5V62H298.059V46.168H292.223V44.9375H305.348V46.168ZM313.305 54.2422L318.52 44.9375H320.184L314.02 55.5781V62H312.578V55.5781L306.426 44.9375H308.137L313.305 54.2422ZM324.121 60.7812H332.547V62H322.668V44.9375H324.121V60.7812ZM344.746 53.8203H336.766V60.7812H345.941V62H335.324V44.9375H345.883V46.168H336.766V52.6016H344.746V53.8203Z" fill="white"/>
</g>
<defs>
<clipPath id="clip0">
<rect width="353" height="79" fill="white"/>
</clipPath>
</defs>
</svg>
