<svg width="100" height="100" viewBox="0 0 100 100" fill="none" xmlns="http://www.w3.org/2000/svg">
<g style="mix-blend-mode:lighten">
<g clip-path="url(#clip0)">
<rect width="100" height="100" fill="black"/>
<path d="M11.1255 36.6421L18.2349 16.1172H21.8237L12.5952 41H9.68994L0.478516 16.1172H4.05029L11.1255 36.6421ZM31.5991 41.3418C29.0926 41.3418 27.0532 40.5215 25.481 38.8809C23.9087 37.2288 23.1226 35.0243 23.1226 32.2671V31.686C23.1226 29.8517 23.4701 28.2168 24.165 26.7812C24.8714 25.3343 25.8512 24.2064 27.1045 23.3975C28.3691 22.5771 29.7363 22.167 31.2061 22.167C33.61 22.167 35.4785 22.9588 36.8115 24.5425C38.1445 26.1261 38.811 28.3934 38.811 31.3442V32.6602H26.2842C26.3298 34.4831 26.8595 35.9585 27.8735 37.0864C28.8989 38.203 30.1978 38.7612 31.77 38.7612C32.8866 38.7612 33.8322 38.5334 34.6069 38.0776C35.3817 37.6219 36.0596 37.0181 36.6406 36.2661L38.5718 37.77C37.0223 40.1512 34.6981 41.3418 31.5991 41.3418ZM31.2061 24.7646C29.93 24.7646 28.859 25.2318 27.9932 26.166C27.1273 27.0889 26.5918 28.3877 26.3867 30.0625H35.6494V29.8232C35.5583 28.2168 35.1253 26.9749 34.3506 26.0977C33.5758 25.209 32.5277 24.7646 31.2061 24.7646ZM41.7334 31.6006C41.7334 28.7181 42.3999 26.4281 43.7329 24.7305C45.0659 23.0215 46.8319 22.167 49.0308 22.167C51.2866 22.167 53.0469 22.9645 54.3115 24.5596L54.4653 22.5088H57.3535V40.5557C57.3535 42.9482 56.6414 44.8338 55.2173 46.2124C53.8045 47.591 51.9019 48.2803 49.5093 48.2803C48.1763 48.2803 46.8717 47.9954 45.5957 47.4258C44.3197 46.8561 43.3455 46.0757 42.6733 45.0845L44.314 43.1875C45.6698 44.8623 47.3275 45.6997 49.2871 45.6997C50.8252 45.6997 52.0215 45.2668 52.876 44.4009C53.7419 43.535 54.1748 42.3159 54.1748 40.7437V39.1543C52.9102 40.6126 51.1841 41.3418 48.9966 41.3418C46.8319 41.3418 45.0773 40.4702 43.7329 38.7271C42.3999 36.9839 41.7334 34.6084 41.7334 31.6006ZM44.9121 31.9595C44.9121 34.0444 45.3394 35.6851 46.1938 36.8813C47.0483 38.0662 48.2446 38.6587 49.7827 38.6587C51.7765 38.6587 53.2406 37.7529 54.1748 35.9414V27.499C53.2064 25.7331 51.7537 24.8501 49.8169 24.8501C48.2788 24.8501 47.0768 25.4482 46.2109 26.6445C45.3451 27.8408 44.9121 29.6125 44.9121 31.9595ZM73.5547 41C73.3724 40.6354 73.2243 39.986 73.1104 39.0518C71.6406 40.5785 69.8861 41.3418 67.8467 41.3418C66.0238 41.3418 64.5256 40.8291 63.3521 39.8037C62.1899 38.7669 61.6089 37.4567 61.6089 35.873C61.6089 33.9476 62.3381 32.4551 63.7964 31.3955C65.2661 30.3245 67.3283 29.7891 69.9829 29.7891H73.0591V28.3364C73.0591 27.2313 72.7287 26.354 72.0679 25.7046C71.4071 25.0438 70.4329 24.7134 69.1455 24.7134C68.0176 24.7134 67.0719 24.9982 66.3086 25.5679C65.5452 26.1375 65.1636 26.8268 65.1636 27.6357H61.9849C61.9849 26.7129 62.3096 25.8242 62.959 24.9697C63.6198 24.1038 64.5085 23.4202 65.625 22.9189C66.7529 22.4176 67.9891 22.167 69.3335 22.167C71.464 22.167 73.1331 22.7025 74.3408 23.7734C75.5485 24.833 76.1751 26.297 76.2207 28.1655V36.6763C76.2207 38.3739 76.4372 39.724 76.8701 40.7266V41H73.5547ZM68.3081 38.5903C69.2993 38.5903 70.2393 38.334 71.1279 37.8213C72.0166 37.3086 72.6603 36.6421 73.0591 35.8218V32.0278H70.5811C66.7074 32.0278 64.7705 33.1615 64.7705 35.4287C64.7705 36.4199 65.1009 37.1947 65.7617 37.7529C66.4225 38.3112 67.2713 38.5903 68.3081 38.5903ZM84.1675 22.5088L84.27 24.833C85.6828 23.0557 87.5285 22.167 89.8071 22.167C93.715 22.167 95.686 24.3716 95.7202 28.7808V41H92.5586V28.7637C92.5472 27.4307 92.2396 26.4451 91.6357 25.8071C91.0433 25.1691 90.1147 24.8501 88.8501 24.8501C87.8247 24.8501 86.9246 25.1235 86.1499 25.6704C85.3752 26.2173 84.7713 26.9351 84.3384 27.8237V41H81.1768V22.5088H84.1675ZM22.0117 82H18.7134V70.4985H6.16943V82H2.88818V57.1172H6.16943V67.8154H18.7134V57.1172H22.0117V82ZM26.5063 72.5835C26.5063 70.772 26.8595 69.1427 27.5659 67.6958C28.2837 66.2489 29.2749 65.1323 30.5396 64.3462C31.8156 63.5601 33.2682 63.167 34.8975 63.167C37.4154 63.167 39.4491 64.0386 40.9985 65.7817C42.5594 67.5249 43.3398 69.8434 43.3398 72.7373V72.9595C43.3398 74.7596 42.9924 76.3774 42.2974 77.813C41.6138 79.2371 40.6283 80.348 39.3408 81.1455C38.0648 81.943 36.5951 82.3418 34.9316 82.3418C32.4251 82.3418 30.3914 81.4702 28.8306 79.7271C27.2811 77.9839 26.5063 75.6768 26.5063 72.8057V72.5835ZM29.6851 72.9595C29.6851 75.0103 30.1579 76.6566 31.1035 77.8984C32.0605 79.1403 33.3366 79.7612 34.9316 79.7612C36.5381 79.7612 37.8141 79.1346 38.7598 77.8813C39.7054 76.6167 40.1782 74.8507 40.1782 72.5835C40.1782 70.5555 39.694 68.9149 38.7256 67.6616C37.7686 66.397 36.4925 65.7646 34.8975 65.7646C33.3366 65.7646 32.0776 66.3856 31.1206 67.6274C30.1636 68.8693 29.6851 70.6466 29.6851 72.9595ZM50.2783 63.5088L50.3638 65.5596C51.7196 63.9645 53.5482 63.167 55.8496 63.167C58.4359 63.167 60.1961 64.1582 61.1304 66.1406C61.7456 65.252 62.5431 64.5342 63.5229 63.9873C64.5142 63.4404 65.682 63.167 67.0264 63.167C71.0824 63.167 73.1445 65.3146 73.2129 69.6099V82H70.0513V69.7979C70.0513 68.4762 69.7493 67.4907 69.1455 66.8413C68.5417 66.1805 67.5277 65.8501 66.1035 65.8501C64.93 65.8501 63.9559 66.2033 63.1812 66.9097C62.4064 67.6047 61.9564 68.5446 61.8311 69.7295V82H58.6523V69.8833C58.6523 67.1945 57.3364 65.8501 54.7046 65.8501C52.631 65.8501 51.2126 66.7331 50.4492 68.499V82H47.2876V63.5088H50.2783ZM85.6714 82.3418C83.1649 82.3418 81.1255 81.5215 79.5532 79.8809C77.981 78.2288 77.1948 76.0243 77.1948 73.2671V72.686C77.1948 70.8517 77.5423 69.2168 78.2373 67.7812C78.9437 66.3343 79.9235 65.2064 81.1768 64.3975C82.4414 63.5771 83.8086 63.167 85.2783 63.167C87.6823 63.167 89.5508 63.9588 90.8838 65.5425C92.2168 67.1261 92.8833 69.3934 92.8833 72.3442V73.6602H80.3564C80.402 75.4831 80.9318 76.9585 81.9458 78.0864C82.9712 79.203 84.27 79.7612 85.8423 79.7612C86.9588 79.7612 87.9045 79.5334 88.6792 79.0776C89.4539 78.6219 90.1318 78.0181 90.7129 77.2661L92.644 78.77C91.0946 81.1512 88.7703 82.3418 85.6714 82.3418ZM85.2783 65.7646C84.0023 65.7646 82.9313 66.2318 82.0654 67.166C81.1995 68.0889 80.6641 69.3877 80.459 71.0625H89.7217V70.8232C89.6305 69.2168 89.1976 67.9749 88.4229 67.0977C87.6481 66.209 86.5999 65.7646 85.2783 65.7646Z" fill="white"/>
</g>
</g>
<defs>
<clipPath id="clip0">
<rect width="100" height="100" fill="white"/>
</clipPath>
</defs>
</svg>
